<svg xmlns="http://www.w3.org/2000/svg" xmlns:xlink="http://www.w3.org/1999/xlink" width="1200" zoomAndPan="magnify" viewBox="0 0 900 209.999996" height="280" preserveAspectRatio="xMidYMid meet" version="1.0"><defs><g/><clipPath id="7d06ea175c"><path d="M 0 5.269531 L 197 5.269531 L 197 179.503906 L 0 179.503906 Z M 0 5.269531 " clip-rule="nonzero"/></clipPath></defs><g fill="#ffffff" fill-opacity="1"><g transform="translate(228.934536, 156.51966)"><g><path d="M 36.625 -75.59375 L 36.625 0 L 8.859375 0 L 8.859375 -121.8125 L 36.625 -121.8125 L 85.046875 -46.21875 L 85.34375 -46.21875 L 85.34375 -121.8125 L 113.109375 -121.8125 L 113.109375 0 L 85.34375 0 L 36.90625 -75.59375 Z M 36.625 -75.59375 "/></g></g></g><g fill="#ffffff" fill-opacity="1"><g transform="translate(350.879036, 156.51966)"><g><path d="M 36.625 -121.8125 L 36.625 0 L 8.859375 0 L 8.859375 -121.8125 Z M 36.625 -121.8125 "/></g></g></g><g fill="#ffffff" fill-opacity="1"><g transform="translate(396.349877, 156.51966)"><g><path d="M 8.859375 -121.8125 L 46.65625 -121.8125 C 58.070312 -121.8125 67.175781 -119.375 73.96875 -114.5 C 80.757812 -109.632812 84.15625 -101.738281 84.15625 -90.8125 C 84.15625 -78.601562 79.085938 -69.890625 68.953125 -64.671875 C 86.273438 -61.617188 94.9375 -51.378906 94.9375 -33.953125 C 94.9375 -23.722656 91.394531 -15.503906 84.3125 -9.296875 C 77.226562 -3.097656 67.484375 0 55.078125 0 L 8.859375 0 Z M 36.625 -74.125 L 38.828125 -74.125 C 45.035156 -74.125 49.664062 -75.207031 52.71875 -77.375 C 55.769531 -79.539062 57.296875 -83.082031 57.296875 -88 C 57.296875 -96.269531 51.140625 -100.40625 38.828125 -100.40625 L 36.625 -100.40625 Z M 36.625 -21.40625 L 45.328125 -21.40625 C 58.910156 -21.40625 65.703125 -25.9375 65.703125 -35 C 65.703125 -40.40625 64.003906 -44.289062 60.609375 -46.65625 C 57.210938 -49.019531 52.117188 -50.203125 45.328125 -50.203125 L 36.625 -50.203125 Z M 36.625 -21.40625 "/></g></g></g><g fill="#ffffff" fill-opacity="1"><g transform="translate(494.673169, 156.51966)"><g><path d="M 109.5625 0 L 103.796875 -72.203125 L 103.0625 -72.203125 L 78.109375 -0.734375 L 61.578125 -0.734375 L 36.625 -72.203125 L 35.875 -72.203125 L 30.125 0 L 2.359375 0 L 13.28125 -121.8125 L 42.8125 -121.8125 L 69.84375 -51.53125 L 96.859375 -121.8125 L 126.390625 -121.8125 L 137.3125 0 Z M 109.5625 0 "/></g></g></g><g fill="#ffffff" fill-opacity="1"><g transform="translate(634.333586, 156.51966)"><g><path d="M 1.1875 -97.453125 L 1.1875 -121.8125 L 86.828125 -121.8125 L 86.828125 -97.453125 L 57.875 -97.453125 L 57.875 0 L 30.125 0 L 30.125 -97.453125 Z M 1.1875 -97.453125 "/></g></g></g><g fill="#ffffff" fill-opacity="1"><g transform="translate(722.322604, 156.51966)"><g><path d="M 36.625 -121.8125 L 36.625 0 L 8.859375 0 L 8.859375 -121.8125 Z M 36.625 -121.8125 "/></g></g></g><g fill="#ffffff" fill-opacity="1"><g transform="translate(767.793445, 156.51966)"><g><path d="M 122.84375 0 L 86.96875 0 L 58.171875 -41.484375 L 29.390625 0 L -5.015625 0 L 41.046875 -65.5625 L 2.65625 -121.8125 L 35.734375 -121.8125 L 58.171875 -88.59375 L 80.625 -121.8125 L 115.171875 -121.8125 L 75.296875 -65.5625 Z M 122.84375 0 "/></g></g></g><g clip-path="url(#7d06ea175c)"><path fill="#a274ff" d="M 156.648438 149.585938 C 154.914062 149.585938 153.511719 150.992188 153.511719 152.722656 L 153.511719 172.953125 L 6.324219 172.953125 L 6.324219 11.546875 L 156.648438 11.546875 C 158.378906 11.546875 159.78125 10.144531 159.78125 8.414062 C 159.78125 6.679688 158.378906 5.277344 156.648438 5.277344 L 3.1875 5.277344 C 1.457031 5.277344 0.0546875 6.679688 0.0546875 8.414062 L 0.0546875 176.085938 C 0.0546875 177.820312 1.457031 179.222656 3.1875 179.222656 L 156.648438 179.222656 C 158.378906 179.222656 159.78125 177.820312 159.78125 176.085938 L 159.78125 152.722656 C 159.78125 150.992188 158.378906 149.585938 156.648438 149.585938 Z M 195.796875 164.945312 C 195.761719 164.988281 195.726562 165.035156 195.6875 165.078125 C 195.664062 165.101562 195.644531 165.128906 195.621094 165.152344 C 195.613281 165.160156 195.601562 165.167969 195.59375 165.179688 C 195.550781 165.222656 195.503906 165.265625 195.457031 165.308594 C 195.425781 165.335938 195.394531 165.367188 195.359375 165.394531 C 195.3125 165.433594 195.265625 165.46875 195.21875 165.503906 C 195.183594 165.53125 195.144531 165.5625 195.109375 165.585938 C 195.0625 165.621094 195.011719 165.648438 194.957031 165.679688 C 194.917969 165.699219 194.882812 165.726562 194.84375 165.75 C 194.753906 165.796875 194.664062 165.84375 194.566406 165.882812 C 194.546875 165.890625 194.53125 165.894531 194.511719 165.902344 C 194.433594 165.933594 194.355469 165.964844 194.269531 165.988281 C 194.25 165.996094 194.226562 166 194.207031 166.003906 C 194.128906 166.027344 194.050781 166.050781 193.96875 166.066406 C 193.9375 166.070312 193.902344 166.074219 193.871094 166.078125 C 193.800781 166.09375 193.734375 166.105469 193.660156 166.109375 C 193.566406 166.121094 193.46875 166.125 193.375 166.128906 C 193.367188 166.128906 193.355469 166.128906 193.347656 166.128906 C 193.246094 166.128906 193.144531 166.121094 193.042969 166.109375 C 193.003906 166.109375 192.964844 166.101562 192.925781 166.097656 C 192.863281 166.085938 192.804688 166.078125 192.742188 166.066406 C 192.699219 166.0625 192.65625 166.046875 192.609375 166.035156 C 192.558594 166.023438 192.503906 166.011719 192.449219 165.996094 C 192.40625 165.980469 192.363281 165.964844 192.316406 165.949219 C 192.265625 165.933594 192.214844 165.914062 192.164062 165.894531 C 192.121094 165.878906 192.082031 165.859375 192.039062 165.839844 C 191.988281 165.816406 191.941406 165.792969 191.890625 165.765625 C 191.851562 165.746094 191.808594 165.722656 191.769531 165.699219 C 191.722656 165.671875 191.679688 165.644531 191.632812 165.617188 C 191.59375 165.589844 191.550781 165.558594 191.511719 165.53125 C 191.472656 165.5 191.429688 165.472656 191.390625 165.441406 C 191.347656 165.40625 191.308594 165.371094 191.269531 165.335938 C 191.242188 165.3125 191.214844 165.289062 191.1875 165.265625 L 84.113281 63.640625 L 84.113281 148 C 84.113281 149.730469 82.707031 151.136719 80.976562 151.136719 C 79.246094 151.136719 77.84375 149.730469 77.84375 148 L 77.84375 57.6875 L 47.410156 28.804688 L 47.410156 112.523438 C 47.410156 114.257812 46.007812 115.660156 44.277344 115.660156 C 42.542969 115.660156 41.140625 114.257812 41.140625 112.523438 L 41.140625 21.507812 C 41.140625 21.476562 41.144531 21.445312 41.144531 21.410156 C 41.148438 21.351562 41.148438 21.292969 41.15625 21.238281 C 41.160156 21.1875 41.164062 21.140625 41.171875 21.089844 C 41.179688 21.039062 41.1875 20.984375 41.195312 20.933594 C 41.207031 20.882812 41.214844 20.835938 41.226562 20.785156 C 41.238281 20.734375 41.25 20.6875 41.265625 20.636719 C 41.28125 20.585938 41.296875 20.539062 41.3125 20.488281 C 41.332031 20.441406 41.347656 20.394531 41.367188 20.347656 C 41.382812 20.300781 41.40625 20.253906 41.425781 20.207031 C 41.449219 20.160156 41.46875 20.113281 41.492188 20.066406 C 41.515625 20.019531 41.542969 19.976562 41.566406 19.933594 C 41.59375 19.890625 41.617188 19.847656 41.644531 19.804688 C 41.675781 19.757812 41.707031 19.714844 41.738281 19.671875 C 41.765625 19.632812 41.792969 19.59375 41.824219 19.554688 C 41.863281 19.511719 41.898438 19.464844 41.9375 19.421875 C 41.960938 19.398438 41.980469 19.371094 42.003906 19.351562 C 42.011719 19.339844 42.019531 19.332031 42.03125 19.320312 C 42.070312 19.28125 42.113281 19.242188 42.15625 19.199219 C 42.191406 19.171875 42.226562 19.136719 42.257812 19.109375 C 42.300781 19.074219 42.34375 19.042969 42.386719 19.011719 C 42.425781 18.980469 42.464844 18.949219 42.503906 18.921875 C 42.546875 18.894531 42.589844 18.867188 42.628906 18.84375 C 42.675781 18.816406 42.71875 18.785156 42.765625 18.761719 C 42.808594 18.738281 42.855469 18.714844 42.898438 18.695312 C 42.945312 18.671875 42.992188 18.648438 43.039062 18.625 C 43.089844 18.605469 43.140625 18.585938 43.191406 18.570312 C 43.234375 18.554688 43.277344 18.535156 43.320312 18.523438 C 43.375 18.503906 43.429688 18.492188 43.484375 18.476562 C 43.527344 18.464844 43.570312 18.453125 43.617188 18.445312 C 43.667969 18.433594 43.71875 18.425781 43.773438 18.417969 C 43.824219 18.410156 43.871094 18.398438 43.921875 18.394531 C 43.96875 18.390625 44.019531 18.386719 44.066406 18.382812 C 44.121094 18.378906 44.179688 18.375 44.238281 18.375 C 44.25 18.375 44.261719 18.371094 44.277344 18.371094 C 44.308594 18.371094 44.34375 18.378906 44.375 18.378906 C 44.433594 18.378906 44.488281 18.382812 44.546875 18.386719 C 44.597656 18.390625 44.644531 18.398438 44.691406 18.402344 C 44.746094 18.410156 44.796875 18.417969 44.851562 18.425781 C 44.902344 18.4375 44.949219 18.449219 45 18.460938 C 45.050781 18.472656 45.097656 18.484375 45.148438 18.496094 C 45.195312 18.511719 45.246094 18.527344 45.292969 18.542969 C 45.34375 18.5625 45.390625 18.578125 45.4375 18.597656 C 45.484375 18.617188 45.53125 18.636719 45.578125 18.660156 C 45.625 18.679688 45.671875 18.703125 45.714844 18.726562 C 45.761719 18.75 45.804688 18.773438 45.847656 18.800781 C 45.894531 18.824219 45.9375 18.851562 45.980469 18.878906 C 46.023438 18.90625 46.070312 18.9375 46.113281 18.96875 C 46.152344 18.996094 46.191406 19.023438 46.226562 19.054688 C 46.273438 19.09375 46.316406 19.132812 46.363281 19.171875 C 46.386719 19.191406 46.410156 19.210938 46.433594 19.234375 L 153.511719 120.859375 L 153.511719 35.253906 C 153.511719 33.523438 154.914062 32.117188 156.648438 32.117188 C 158.378906 32.117188 159.78125 33.523438 159.78125 35.253906 L 159.78125 126.273438 C 159.78125 126.441406 159.765625 126.609375 159.738281 126.769531 L 190.210938 155.695312 L 190.210938 71.976562 C 190.210938 70.242188 191.613281 68.839844 193.347656 68.839844 C 195.078125 68.839844 196.484375 70.242188 196.484375 71.976562 L 196.484375 162.992188 C 196.484375 163.023438 196.480469 163.058594 196.476562 163.089844 C 196.476562 163.148438 196.476562 163.207031 196.46875 163.261719 C 196.464844 163.3125 196.460938 163.359375 196.453125 163.410156 C 196.445312 163.460938 196.4375 163.515625 196.429688 163.566406 C 196.417969 163.617188 196.410156 163.664062 196.394531 163.714844 C 196.386719 163.765625 196.371094 163.816406 196.355469 163.863281 C 196.34375 163.914062 196.328125 163.960938 196.308594 164.007812 C 196.292969 164.058594 196.277344 164.105469 196.257812 164.15625 C 196.238281 164.199219 196.21875 164.246094 196.199219 164.292969 C 196.175781 164.339844 196.15625 164.386719 196.128906 164.433594 C 196.109375 164.476562 196.082031 164.523438 196.054688 164.566406 C 196.03125 164.609375 196.003906 164.652344 195.976562 164.695312 C 195.949219 164.742188 195.917969 164.785156 195.886719 164.828125 C 195.859375 164.867188 195.828125 164.90625 195.796875 164.945312 " fill-opacity="1" fill-rule="nonzero"/></g></svg>